<svg xmlns="http://www.w3.org/2000/svg" xmlns:xlink="http://www.w3.org/1999/xlink" width="500" zoomAndPan="magnify" viewBox="0 0 375 374.999991" height="500" preserveAspectRatio="xMidYMid meet" version="1.0"><path stroke-linecap="round" transform="matrix(0.318869, 0, 0, 0.318869, 208.922921, 233.647117)" fill-opacity="1" fill="#ffffff" fill-rule="nonzero" stroke-linejoin="round" d="M 144.50144 34.354024 C 144.50144 34.354024 144.50144 -34.357995 144.50144 -34.357995 C 144.50144 -34.357995 108.02 -34.357995 108.02 -34.357995 C 106.0722 -40.507653 103.597637 -46.436806 100.669811 -52.071951 C 100.669811 -52.071951 126.481226 -77.883366 126.481226 -77.883366 C 126.481226 -77.883366 77.884225 -126.468117 77.884225 -126.468117 C 77.884225 -126.468117 52.08506 -100.668952 52.08506 -100.668952 C 46.437665 -103.609028 40.508512 -106.071341 34.358854 -108.031392 C 34.358854 -108.031392 34.358854 -144.500581 34.358854 -144.500581 C 34.358854 -144.500581 -34.353165 -144.500581 -34.353165 -144.500581 C -34.353165 -144.500581 -34.353165 -108.031392 -34.353165 -108.031392 C -40.515074 -106.071341 -46.431976 -103.609028 -52.079372 -100.668952 C -52.079372 -100.668952 -77.890786 -126.468117 -77.890786 -126.468117 C -77.890786 -126.468117 -126.475537 -77.883366 -126.475537 -77.883366 C -126.475537 -77.883366 -100.676373 -52.071951 -100.676373 -52.071951 C -103.604198 -46.436806 -106.066512 -40.507653 -108.026562 -34.357995 C -108.026562 -34.357995 -144.495751 -34.357995 -144.495751 -34.357995 C -144.495751 -34.357995 -144.495751 34.354024 -144.495751 34.354024 C -144.495751 34.354024 -108.026562 34.354024 -108.026562 34.354024 C -106.066512 40.503683 -103.616449 46.432835 -100.676373 52.080231 C -100.676373 52.080231 -126.475537 77.879395 -126.475537 77.879395 C -126.475537 77.879395 -77.890786 126.476396 -77.890786 126.476396 C -77.890786 126.476396 -52.079372 100.664982 -52.079372 100.664982 C -46.431976 103.605057 -40.515074 106.079621 -34.353165 108.027421 C -34.353165 108.027421 -34.353165 144.50886 -34.353165 144.50886 C -34.353165 144.50886 34.358854 144.50886 34.358854 144.50886 C 34.358854 144.50886 34.358854 108.027421 34.358854 108.027421 C 40.508512 106.079621 46.437665 103.605057 52.08506 100.664982 C 52.08506 100.664982 77.884225 126.476396 77.884225 126.476396 C 77.884225 126.476396 126.481226 77.879395 126.481226 77.879395 C 126.481226 77.879395 100.669811 52.080231 100.669811 52.080231 C 103.609887 46.432835 106.0722 40.503683 108.02 34.354024 C 108.02 34.354024 144.50144 34.354024 144.50144 34.354024 Z M 51.30104 2.711459 C 50.676274 14.863772 45.812899 25.876806 38.193203 34.354024 C 36.980421 35.701559 35.694138 36.987842 34.358854 38.200623 C 25.869385 45.820319 14.844101 50.671444 2.704039 51.29621 C 1.809766 51.345212 0.915493 51.369712 -0.00328091 51.369712 C -0.909804 51.369712 -1.804077 51.345212 -2.710601 51.29621 C -14.838413 50.671444 -25.875947 45.820319 -34.353165 38.200623 C -35.7007 36.987842 -36.974733 35.701559 -38.187514 34.354024 C -45.819461 25.876806 -50.670585 14.863772 -51.307602 2.711459 C -51.344353 1.817186 -51.368853 0.922913 -51.368853 0.00413976 C -51.368853 -0.902384 -51.344353 -1.796657 -51.307602 -2.71543 C -50.670585 -14.855493 -45.819461 -25.880777 -38.187514 -34.357995 C -36.974733 -35.70553 -35.7007 -36.979562 -34.353165 -38.204594 C -25.875947 -45.82429 -14.838413 -50.663165 -2.710601 -51.300181 C -1.804077 -51.336932 -0.909804 -51.361433 -0.00328091 -51.361433 C 0.915493 -51.361433 1.809766 -51.336932 2.704039 -51.300181 C 14.844101 -50.663165 25.869385 -45.82429 34.358854 -38.204594 C 35.694138 -36.979562 36.980421 -35.70553 38.193203 -34.357995 C 45.812899 -25.880777 50.676274 -14.855493 51.30104 -2.71543 C 51.350041 -1.796657 51.374542 -0.902384 51.374542 0.00413976 C 51.374542 0.922913 51.350041 1.817186 51.30104 2.711459 Z M 51.30104 2.711459 " stroke="#253237" stroke-width="2" stroke-opacity="1" stroke-miterlimit="4"/><path stroke-linecap="round" transform="matrix(0.178309, 0.264355, -0.264355, 0.178309, 213.857729, 116.781189)" fill-opacity="1" fill="#ffffff" fill-rule="nonzero" stroke-linejoin="round" d="M 43.525629 10.349541 C 43.525629 10.349541 43.525493 -10.352499 43.525493 -10.352499 C 43.525493 -10.352499 32.547611 -10.354124 32.547611 -10.354124 C 31.949443 -12.205695 31.214986 -13.986653 30.327234 -15.693691 C 30.327234 -15.693691 38.109167 -23.462851 38.109167 -23.462851 C 38.109167 -23.462851 23.466204 -38.097706 23.466204 -38.097706 C 23.466204 -38.097706 15.694427 -30.321695 15.694427 -30.321695 C 13.98679 -31.207533 12.200255 -31.954493 10.348285 -32.538718 C 10.348285 -32.538718 10.346603 -43.533607 10.346603 -43.533607 C 10.346603 -43.533607 -10.355437 -43.533471 -10.355437 -43.533471 C -10.355437 -43.533471 -10.346905 -32.548739 -10.346905 -32.548739 C -12.208633 -31.957421 -13.996441 -31.212808 -15.686472 -30.328362 C -15.686472 -30.328362 -23.462483 -38.100139 -23.462483 -38.100139 C -23.462483 -38.100139 -38.107494 -23.464026 -38.107494 -23.464026 C -38.107494 -23.464026 -30.331483 -15.692249 -30.331483 -15.692249 C -31.217321 -13.984612 -31.947275 -12.201384 -32.541656 -10.356263 C -32.541656 -10.356263 -43.526389 -10.347731 -43.526389 -10.347731 C -43.526389 -10.347731 -43.526253 10.354309 -43.526253 10.354309 C -43.526253 10.354309 -32.541521 10.345777 -32.541521 10.345777 C -31.950203 12.207505 -31.215746 13.988462 -30.327994 15.6955 C -30.327994 15.6955 -38.109927 23.464661 -38.109927 23.464661 C -38.109927 23.464661 -23.466964 38.099516 -23.466964 38.099516 C -23.466964 38.099516 -15.695187 30.323505 -15.695187 30.323505 C -13.98755 31.209343 -12.201016 31.956303 -10.349045 32.540528 C -10.349045 32.540528 -10.347364 43.535417 -10.347364 43.535417 C -10.347364 43.535417 10.354677 43.535281 10.354677 43.535281 C 10.354677 43.535281 10.352995 32.540393 10.352995 32.540393 C 12.207873 31.959231 13.985525 31.207768 15.685712 30.330171 C 15.685712 30.330171 23.461723 38.101949 23.461723 38.101949 C 23.461723 38.101949 38.106734 23.465836 38.106734 23.465836 C 38.106734 23.465836 30.330723 15.694059 30.330723 15.694059 C 31.216561 13.986422 31.956671 12.210044 32.547746 10.347917 C 32.547746 10.347917 43.525629 10.349541 43.525629 10.349541 Z M 15.454651 0.81331 C 15.264996 4.468184 13.802978 7.796793 11.502514 10.352991 C 11.140165 10.758752 10.747349 11.143963 10.351227 11.512166 C 7.797342 13.808771 4.469969 15.258567 0.819796 15.456273 C 0.547935 15.464995 0.276073 15.473718 -0.0059438 15.47559 C -0.270955 15.474156 -0.546122 15.465873 -0.814438 15.447433 C -4.469312 15.257778 -7.787765 13.80261 -10.350814 11.512302 C -10.749724 11.139797 -11.141785 10.757137 -11.503138 10.350859 C -13.799743 7.796974 -15.266546 4.472907 -15.457401 0.812578 C -15.466124 0.540717 -15.481696 0.279011 -15.473412 0.00384429 C -15.475284 -0.278173 -15.473851 -0.543184 -15.455411 -0.811501 C -15.258906 -4.47653 -13.803738 -7.794983 -11.503274 -10.351182 C -11.140926 -10.756943 -10.748109 -11.142153 -10.351987 -11.510357 C -7.798102 -13.806961 -4.47073 -15.256758 -0.820556 -15.454463 C -0.548695 -15.463186 -0.276834 -15.471908 0.00518362 -15.47378 C 0.270195 -15.472347 0.545362 -15.464063 0.820528 -15.455779 C 4.475402 -15.266124 7.793855 -13.810956 10.350054 -11.510492 C 10.755815 -11.148144 11.141025 -10.755327 11.502378 -10.349049 C 13.798983 -7.795164 15.265786 -4.471097 15.456641 -0.810768 C 15.465363 -0.538907 15.474086 -0.267046 15.472652 -0.00203455 C 15.474524 0.279983 15.473091 0.544994 15.454651 0.81331 Z M 15.454651 0.81331 " stroke="#253237" stroke-width="2" stroke-opacity="1" stroke-miterlimit="4"/><path stroke-linecap="round" transform="matrix(-0.168975, 0.270417, -0.270417, -0.168975, 35.311628, 214.129131)" fill-opacity="1" fill="#ffffff" fill-rule="nonzero" stroke-linejoin="round" d="M 55.206355 13.126197 C 55.206355 13.126197 55.20233 -13.11841 55.20233 -13.11841 C 55.20233 -13.11841 41.27299 -13.124914 41.27299 -13.124914 C 40.526556 -15.475325 39.573647 -17.740052 38.461009 -19.890524 C 38.461009 -19.890524 48.320381 -29.749341 48.320381 -29.749341 C 48.320381 -29.749341 29.75833 -48.312286 29.75833 -48.312286 C 29.75833 -48.312286 19.898957 -38.453468 19.898957 -38.453468 C 17.739605 -39.574303 15.469863 -40.525041 13.126085 -41.270618 C 13.126085 -41.270618 13.126097 -55.210347 13.126097 -55.210347 C 13.126097 -55.210347 -13.11851 -55.206321 -13.11851 -55.206321 C -13.11851 -55.206321 -13.118522 -41.266593 -13.118522 -41.266593 C -15.475425 -40.530547 -17.740152 -39.577639 -19.901013 -38.458508 C -19.901013 -38.458508 -29.759831 -48.317881 -29.759831 -48.317881 C -29.759831 -48.317881 -48.322775 -29.755829 -48.322775 -29.755829 C -48.322775 -29.755829 -38.463958 -19.896457 -38.463958 -19.896457 C -39.584793 -17.737105 -40.525142 -15.473854 -41.270719 -13.130076 C -41.270719 -13.130076 -55.203956 -13.119699 -55.203956 -13.119699 C -55.203956 -13.119699 -55.19993 13.124908 -55.19993 13.124908 C -55.19993 13.124908 -41.27059 13.131411 -41.27059 13.131411 C -40.524156 15.481822 -39.588128 17.742653 -38.458609 19.897021 C -38.458609 19.897021 -48.317981 29.755839 -48.317981 29.755839 C -48.317981 29.755839 -29.75593 48.318784 -29.75593 48.318784 C -29.75593 48.318784 -19.896557 38.459966 -19.896557 38.459966 C -17.737205 39.580801 -15.473955 40.52115 -13.123685 41.277116 C -13.123685 41.277116 -13.130188 55.206456 -13.130188 55.206456 C -13.130188 55.206456 13.131299 55.206327 13.131299 55.206327 C 13.131299 55.206327 13.120922 41.273091 13.120922 41.273091 C 15.471333 40.526656 17.742552 39.584136 19.896921 38.454617 C 19.896921 38.454617 29.755739 48.31399 29.755739 48.31399 C 29.755739 48.31399 48.318684 29.751938 48.318684 29.751938 C 48.318684 29.751938 38.459866 19.892565 38.459866 19.892565 C 39.587193 17.743603 40.52105 15.469963 41.266627 13.126185 C 41.266627 13.126185 55.206355 13.126197 55.206355 13.126197 Z M 19.600478 1.038722 C 19.365008 5.67835 17.503817 9.889311 14.587012 13.127573 C 14.129881 13.644345 13.636394 14.126053 13.119535 14.593476 C 9.885919 17.509672 5.664222 19.353189 1.037533 19.600774 C 0.686928 19.617622 0.346712 19.627978 0.00000437695 19.627945 C -0.346703 19.627913 -0.689514 19.611 -1.032324 19.594086 C -5.671953 19.358616 -9.876422 17.507814 -13.125072 14.597501 C -13.637948 14.12349 -14.130045 13.636494 -14.590976 13.130024 C -17.503275 9.879527 -19.361078 5.681203 -19.604765 1.037633 C -19.615121 0.697417 -19.625478 0.357201 -19.631937 0.000104692 C -19.631904 -0.346603 -19.614991 -0.689414 -19.598078 -1.032224 C -19.362608 -5.671853 -17.501417 -9.882813 -14.591104 -13.131464 C -14.127481 -13.637847 -13.640486 -14.129945 -13.123626 -14.597367 C -9.883519 -17.503175 -5.668313 -19.35708 -1.035133 -19.594276 C -0.684528 -19.611124 -0.344312 -19.62148 0.00239553 -19.621448 C 0.349103 -19.621415 0.685422 -19.614891 1.028233 -19.597978 C 5.667861 -19.362507 9.878822 -17.501317 13.127472 -14.591004 C 13.633856 -14.127381 14.125953 -13.640385 14.593376 -13.123526 C 17.499183 -9.883419 19.363478 -5.674705 19.600673 -1.041525 C 19.617521 -0.69092 19.627878 -0.350704 19.627845 -0.00399584 C 19.627812 0.342712 19.617391 0.695911 19.600478 1.038722 Z M 19.600478 1.038722 " stroke="#253237" stroke-width="2" stroke-opacity="1" stroke-miterlimit="4"/><path stroke-linecap="round" transform="matrix(0.318869, 0, 0, 0.318869, 271.597311, 78.170899)" fill-opacity="1" fill="#253237" fill-rule="nonzero" stroke-linejoin="round" d="M 116.146322 0.00306123 C 116.146322 64.145713 64.143733 116.136051 0.00108127 116.136051 C -64.14157 116.136051 -116.144159 64.145713 -116.144159 0.00306123 C -116.144159 -64.13959 -64.14157 -116.142179 0.00108127 -116.142179 C 64.143733 -116.142179 116.146322 -64.13959 116.146322 0.00306123 Z M 116.146322 0.00306123 " stroke="#253237" stroke-width="2" stroke-opacity="1" stroke-miterlimit="4"/><path stroke-linecap="round" transform="matrix(0.318869, 0, 0, 0.318869, 270.600191, 75.803287)" fill-opacity="1" fill="#ffffff" fill-rule="nonzero" stroke-linejoin="round" d="M 116.137292 0.00439201 C 116.137292 64.147044 64.146954 116.137382 0.00430198 116.137382 C -64.13835 116.137382 -116.140938 64.147044 -116.140938 0.00439201 C -116.140938 -64.13826 -64.13835 -116.140848 0.00430198 -116.140848 C 64.146954 -116.140848 116.137292 -64.13826 116.137292 0.00439201 Z M 116.137292 0.00439201 " stroke="#253237" stroke-width="2" stroke-opacity="1" stroke-miterlimit="4"/><path stroke-linecap="round" transform="matrix(0.318869, 0, 0, 0.318869, 270.600191, 75.803287)" fill-opacity="1" fill="#d4d4d4" fill-rule="nonzero" stroke-linejoin="round" d="M 90.350378 0.00439201 C 90.350378 49.899927 49.899837 90.350468 0.00430198 90.350468 C -49.903483 90.350468 -90.354025 49.899927 -90.354025 0.00439201 C -90.354025 -49.903393 -49.903483 -90.353935 0.00430198 -90.353935 C 49.899837 -90.353935 90.350378 -49.903393 90.350378 0.00439201 Z M 90.350378 0.00439201 " stroke="#253237" stroke-width="2" stroke-opacity="1" stroke-miterlimit="4"/><path stroke-linecap="round" transform="matrix(0.318869, 0, 0, 0.318869, 270.600191, 75.803287)" fill-opacity="1" fill="#ffffff" fill-rule="nonzero" stroke-linejoin="round" d="M 63.571189 0.00439201 C 63.571189 35.113796 35.113706 63.571279 0.00430198 63.571279 C -35.105102 63.571279 -63.574835 35.113796 -63.574835 0.00439201 C -63.574835 -35.105012 -35.105102 -63.574745 0.00430198 -63.574745 C 35.113706 -63.574745 63.571189 -35.105012 63.571189 0.00439201 Z M 63.571189 0.00439201 " stroke="#253237" stroke-width="2" stroke-opacity="1" stroke-miterlimit="4"/><path stroke-linecap="round" transform="matrix(0.318869, 0, 0, 0.318869, 270.599898, 75.803287)" fill-opacity="1" fill="#d4d4d4" fill-rule="nonzero" stroke-linejoin="round" d="M 33.546584 0.00439201 C 33.546584 18.526869 18.527697 33.545756 0.00522022 33.545756 C -18.529507 33.545756 -33.536143 18.526869 -33.536143 0.00439201 C -33.536143 -18.518085 -18.529507 -33.536972 0.00522022 -33.536972 C 18.527697 -33.536972 33.546584 -18.518085 33.546584 0.00439201 Z M 33.546584 0.00439201 " stroke="#253237" stroke-width="2" stroke-opacity="1" stroke-miterlimit="4"/><path stroke-linecap="round" transform="matrix(0.318869, 0, 0, 0.318869, 302.555697, 37.553318)" fill-opacity="1" fill="#d4d4d4" fill-rule="nonzero" stroke-linejoin="round" d="M -10.366932 25.889212 C -10.366932 25.889212 -13.515263 1.106824 -13.515263 1.106824 C -13.515263 1.106824 11.708137 -25.880621 11.708137 -25.880621 C 11.708137 -25.880621 13.521184 0.849567 13.521184 0.849567 C 13.521184 0.849567 -10.366932 25.889212 -10.366932 25.889212 Z M -10.366932 25.889212 " stroke="#253237" stroke-width="2" stroke-opacity="1" stroke-miterlimit="4"/><path stroke-linecap="round" transform="matrix(0.318869, 0, 0, 0.318869, 308.34476, 43.226961)" fill-opacity="1" fill="#d4d4d4" fill-rule="nonzero" stroke-linejoin="round" d="M 25.612241 -11.6268 C 25.612241 -11.6268 0.0335827 -13.709353 0.0335827 -13.709353 C 0.0335827 -13.709353 -25.618578 10.962782 -25.618578 10.962782 C -25.618578 10.962782 0.0335827 13.706853 0.0335827 13.706853 C 0.0335827 13.706853 25.612241 -11.6268 25.612241 -11.6268 Z M 25.612241 -11.6268 " stroke="#253237" stroke-width="2" stroke-opacity="1" stroke-miterlimit="4"/><path stroke-linecap="round" transform="matrix(0.318869, 0, 0, 0.318869, 289.608326, 56.306027)" fill-opacity="1" fill="#ffffff" fill-rule="nonzero" stroke-linejoin="round" d="M 57.91053 -63.117825 C 53.916927 -59.075221 49.923324 -55.032617 45.941972 -50.990013 C 36.362225 -41.287763 26.782478 -31.585513 17.202732 -21.883263 C 5.662935 -10.196462 -5.864612 1.502589 -17.404409 13.18939 C -27.425167 23.344901 -37.445925 33.500413 -47.478934 43.655924 C -52.342309 48.592801 -57.42619 53.382675 -62.118061 58.491056 C -62.179312 58.564558 -62.252814 58.63806 -62.326316 58.699312 C -65.156139 61.565885 -60.733775 65.988249 -57.903952 63.121675 C -53.9226 59.079071 -49.928997 55.036467 -45.935394 50.993863 C -36.367898 41.291613 -26.788151 31.589364 -17.208404 21.887114 C -5.668607 10.188063 5.87119 -1.498738 17.410987 -13.185539 C 27.431745 -23.341051 37.452503 -33.496562 47.473261 -43.652074 C 52.336636 -48.588951 57.432768 -53.378824 62.112388 -58.487206 C 62.18589 -58.560708 62.259392 -58.634209 62.320643 -58.707711 C 65.150466 -61.574285 60.740353 -65.984399 57.91053 -63.117825 Z M 57.91053 -63.117825 " stroke="#253237" stroke-width="2" stroke-opacity="1" stroke-miterlimit="4"/><path stroke-linecap="round" transform="matrix(0.277416, 0, 0, 0.277416, 151.732816, 72.775937)" fill-opacity="1" fill="#ffffff" fill-rule="nonzero" stroke-linejoin="round" d="M 12.875491 41.290043 C 12.875491 41.290043 -12.878333 41.290043 -12.878333 41.290043 C -12.878333 41.290043 -12.878333 -41.293981 -12.878333 -41.293981 C -12.878333 -41.293981 12.875491 -41.293981 12.875491 -41.293981 C 12.875491 -41.293981 12.875491 41.290043 12.875491 41.290043 Z M 12.875491 41.290043 " stroke="#253237" stroke-width="2" stroke-opacity="1" stroke-miterlimit="4"/><path stroke-linecap="round" transform="matrix(0.277416, 0, 0, 0.277416, 161.150545, 75.249933)" fill-opacity="1" fill="#d4d4d4" fill-rule="nonzero" stroke-linejoin="round" d="M 12.876355 32.372051 C 12.876355 32.372051 -12.877469 32.372051 -12.877469 32.372051 C -12.877469 32.372051 -12.877469 -32.371571 -12.877469 -32.371571 C -12.877469 -32.371571 12.876355 -32.371571 12.876355 -32.371571 C 12.876355 -32.371571 12.876355 32.372051 12.876355 32.372051 Z M 12.876355 32.372051 " stroke="#253237" stroke-width="2" stroke-opacity="1" stroke-miterlimit="4"/><path stroke-linecap="round" transform="matrix(0.277416, 0, 0, 0.277416, 170.568274, 78.502927)" fill-opacity="1" fill="#ffffff" fill-rule="nonzero" stroke-linejoin="round" d="M 12.877219 20.646016 C 12.877219 20.646016 -12.876605 20.646016 -12.876605 20.646016 C -12.876605 20.646016 -12.876605 -20.638955 -12.876605 -20.638955 C -12.876605 -20.638955 12.877219 -20.638955 12.877219 -20.638955 C 12.877219 -20.638955 12.877219 20.646016 12.877219 20.646016 Z M 12.877219 20.646016 " stroke="#253237" stroke-width="2" stroke-opacity="1" stroke-miterlimit="4"/><path stroke-linecap="round" transform="matrix(0.318869, 0, 0, 0.318869, 225.668968, 184.276262)" fill-opacity="1" fill="#02c37e" fill-rule="nonzero" stroke-linejoin="round" d="M -377.557855 111.738518 C -377.557855 111.738518 -152.127551 -127.44889 -152.127551 -127.44889 C -152.127551 -127.44889 123.872056 -27.768074 123.872056 -27.768074 C 123.872056 -27.768074 248.788522 -106.415099 248.788522 -106.415099 C 248.788522 -106.415099 208.693239 -131.270988 208.693239 -131.270988 C 208.693239 -131.270988 377.563837 -154.828345 377.563837 -154.828345 C 377.563837 -154.828345 276.915246 -9.588605 276.915246 -9.588605 C 276.915246 -9.588605 275.420708 -59.435139 275.420708 -59.435139 C 275.420708 -59.435139 133.488553 31.40095 133.488553 31.40095 C 133.488553 31.40095 -139.166717 -65.6828 -139.166717 -65.6828 C -139.166717 -65.6828 -342.815961 154.835128 -342.815961 154.835128 C -342.815961 154.835128 -377.557855 111.738518 -377.557855 111.738518 Z M -377.557855 111.738518 " stroke="#253237" stroke-width="2" stroke-opacity="1" stroke-miterlimit="4"/><path stroke-linecap="round" transform="matrix(0.318869, 0, 0, 0.318869, 201.400479, 269.111759)" fill-opacity="1" fill="#ffffff" fill-rule="nonzero" stroke-linejoin="round" d="M -462.664066 219.040413 C -462.664066 219.040413 -462.664066 52.828134 -462.664066 52.828134 C -462.664066 52.828134 -229.148553 52.828134 -229.148553 52.828134 C -229.148553 52.828134 -229.148553 -39.624997 -229.148553 -39.624997 C -229.148553 -39.624997 6.486264 -39.624997 6.486264 -39.624997 C 6.486264 -39.624997 6.486264 -136.488241 6.486264 -136.488241 C 6.486264 -136.488241 240.001776 -136.488241 240.001776 -136.488241 C 240.001776 -136.488241 240.001776 -219.043116 240.001776 -219.043116 C 240.001776 -219.043116 458.767909 -219.043116 458.767909 -219.043116 C 458.767909 -219.043116 462.66351 213.540022 462.66351 213.540022 C 462.66351 213.540022 -462.664066 219.040413 -462.664066 219.040413 Z M -462.664066 219.040413 " stroke="#253237" stroke-width="2" stroke-opacity="1" stroke-miterlimit="4"/><path stroke-linecap="round" transform="matrix(0.318869, 0, 0, 0.318869, 52.277082, 197.672917)" fill="none" stroke-linejoin="round" d="M 238.514462 276.86611 C 238.514462 276.86611 238.514462 441.608351 238.514462 441.608351 " stroke="#253237" stroke-width="2" stroke-opacity="1" stroke-miterlimit="4"/><path stroke-linecap="round" transform="matrix(0.318869, 0, 0, 0.318869, 52.277082, 197.672917)" fill="none" stroke-linejoin="round" d="M 474.14928 184.412979 C 474.14928 184.412979 474.14928 440.113813 474.14928 440.113813 " stroke="#253237" stroke-width="2" stroke-opacity="1" stroke-miterlimit="4"/><path stroke-linecap="round" transform="matrix(0.318869, 0, 0, 0.318869, 52.277082, 197.672917)" fill="none" stroke-linejoin="round" d="M 707.664792 87.549735 C 707.664792 87.549735 707.664792 438.619274 707.664792 438.619274 " stroke="#253237" stroke-width="2" stroke-opacity="1" stroke-miterlimit="4"/><path stroke-linecap="round" transform="matrix(0.318869, 0, 0, 0.318869, 209.705441, 279.725986)" fill-opacity="1" fill="#ffffff" fill-rule="nonzero" stroke-linejoin="round" d="M -462.664926 219.037446 C -462.664926 219.037446 -462.664926 52.837417 -462.664926 52.837417 C -462.664926 52.837417 -229.149413 52.837417 -229.149413 52.837417 C -229.149413 52.837417 -229.149413 -39.627964 -229.149413 -39.627964 C -229.149413 -39.627964 6.485404 -39.627964 6.485404 -39.627964 C 6.485404 -39.627964 6.485404 -136.491208 6.485404 -136.491208 C 6.485404 -136.491208 240.000916 -136.491208 240.000916 -136.491208 C 240.000916 -136.491208 240.000916 -219.033833 240.000916 -219.033833 C 240.000916 -219.033833 458.767049 -219.033833 458.767049 -219.033833 C 458.767049 -219.033833 462.662649 213.537055 462.662649 213.537055 C 462.662649 213.537055 -462.664926 219.037446 -462.664926 219.037446 Z M -462.664926 219.037446 " stroke="#253237" stroke-width="2" stroke-opacity="1" stroke-miterlimit="4"/><path stroke-linecap="round" transform="matrix(0.318869, 0, 0, 0.318869, 52.277082, 197.672917)" fill="none" stroke-linejoin="round" d="M 264.558633 310.162467 C 264.558633 310.162467 264.558633 474.892458 264.558633 474.892458 " stroke="#253237" stroke-width="2" stroke-opacity="1" stroke-miterlimit="4"/><path stroke-linecap="round" transform="matrix(0.318869, 0, 0, 0.318869, 52.277082, 197.672917)" fill="none" stroke-linejoin="round" d="M 500.19345 217.697086 C 500.19345 217.697086 500.19345 473.41017 500.19345 473.41017 " stroke="#253237" stroke-width="2" stroke-opacity="1" stroke-miterlimit="4"/><path stroke-linecap="round" transform="matrix(0.318869, 0, 0, 0.318869, 52.277082, 197.672917)" fill="none" stroke-linejoin="round" d="M 733.708963 120.833842 C 733.708963 120.833842 733.708963 471.903381 733.708963 471.903381 " stroke="#253237" stroke-width="2" stroke-opacity="1" stroke-miterlimit="4"/><path stroke-linecap="round" transform="matrix(0.318869, 0, 0, 0.318869, 95.254613, 291.26585)" fill-opacity="1" fill="#ffffff" fill-rule="nonzero" stroke-linejoin="round" d="M -129.782059 -16.648886 C -129.782059 -16.648886 -103.737889 16.647472 -103.737889 16.647472 C -103.737889 16.647472 129.777624 16.647472 129.777624 16.647472 C 129.777624 16.647472 103.733453 -16.648886 103.733453 -16.648886 C 103.733453 -16.648886 -129.782059 -16.648886 -129.782059 -16.648886 Z M -129.782059 -16.648886 " stroke="#253237" stroke-width="2" stroke-opacity="1" stroke-miterlimit="4"/><path stroke-linecap="round" transform="matrix(0.318869, 0, 0, 0.318869, 58.023747, 317.76452)" fill-opacity="1" fill="#ffffff" fill-rule="nonzero" stroke-linejoin="round" d="M -13.023056 66.461427 C -13.023056 66.461427 13.021114 99.745534 13.021114 99.745534 C 13.021114 99.745534 13.021114 -66.454496 13.021114 -66.454496 C 13.021114 -66.454496 -13.023056 -99.750853 -13.023056 -99.750853 C -13.023056 -99.750853 -13.023056 66.461427 -13.023056 66.461427 Z M -13.023056 66.461427 " stroke="#253237" stroke-width="2" stroke-opacity="1" stroke-miterlimit="4"/><path stroke-linecap="round" transform="matrix(0.318869, 0, 0, 0.318869, 170.053383, 261.78382)" fill-opacity="1" fill="#ffffff" fill-rule="nonzero" stroke-linejoin="round" d="M -130.841528 -16.643989 C -130.841528 -16.643989 -104.797357 16.640118 -104.797357 16.640118 C -104.797357 16.640118 130.83746 16.640118 130.83746 16.640118 C 130.83746 16.640118 104.793289 -16.643989 104.793289 -16.643989 C 104.793289 -16.643989 -130.841528 -16.643989 -130.841528 -16.643989 Z M -130.841528 -16.643989 " stroke="#253237" stroke-width="2" stroke-opacity="1" stroke-miterlimit="4"/><path stroke-linecap="round" transform="matrix(0.318869, 0, 0, 0.318869, 244.852181, 230.897826)" fill-opacity="1" fill="#ffffff" fill-rule="nonzero" stroke-linejoin="round" d="M -129.781782 -16.646262 C -129.781782 -16.646262 -103.737611 16.650095 -103.737611 16.650095 C -103.737611 16.650095 129.777901 16.650095 129.777901 16.650095 C 129.777901 16.650095 103.733731 -16.646262 103.733731 -16.646262 C 103.733731 -16.646262 -129.781782 -16.646262 -129.781782 -16.646262 Z M -129.781782 -16.646262 " stroke="#253237" stroke-width="2" stroke-opacity="1" stroke-miterlimit="4"/><path stroke-linecap="round" transform="matrix(0.318869, 0, 0, 0.318869, 316.96094, 204.574513)" fill-opacity="1" fill="#ffffff" fill-rule="nonzero" stroke-linejoin="round" d="M -122.405159 -16.649101 C -122.405159 -16.649101 -96.360988 16.647256 -96.360988 16.647256 C -96.360988 16.647256 122.405145 16.647256 122.405145 16.647256 C 122.405145 16.647256 96.360974 -16.649101 96.360974 -16.649101 C 96.360974 -16.649101 -122.405159 -16.649101 -122.405159 -16.649101 Z M -122.405159 -16.649101 " stroke="#253237" stroke-width="2" stroke-opacity="1" stroke-miterlimit="4"/><path stroke-linecap="round" transform="matrix(0.318869, 0, 0, 0.318869, 134.07439, 137.326251)" fill-opacity="1" fill="#d4d4d4" fill-rule="nonzero" stroke-linejoin="round" d="M -46.833493 -21.370923 C -46.833493 -21.370923 9.015695 71.58447 9.015695 71.58447 C 23.446566 94.394557 60.49152 70.959704 46.060649 48.149617 C 19.195707 -6.045779 -8.061245 -52.854234 -35.587704 -94.395054 C -50.827096 -72.858999 -60.492595 -58.195371 -46.833493 -21.370923 Z M -46.833493 -21.370923 " stroke="#253237" stroke-width="2" stroke-opacity="1" stroke-miterlimit="4"/><path stroke-linecap="round" transform="matrix(0.318869, 0, 0, 0.318869, 95.480674, 133.587178)" fill-opacity="1" fill="#d4d4d4" fill-rule="nonzero" stroke-linejoin="round" d="M 85.947569 -82.66902 C 69.862904 -92.555025 54.121249 -101.166996 39.053361 -107.230902 C 39.053361 -107.230902 -31.67996 -113.000801 -31.67996 -113.000801 C -50.447443 -105.871117 -68.675913 -97.197894 -85.948857 -85.792851 C -85.948857 -85.792851 -49.773676 106.267595 -49.773676 106.267595 C -2.315954 112.588757 35.684524 112.993018 59.695143 104.662803 C 59.695143 104.662803 85.947569 -82.66902 85.947569 -82.66902 Z M 85.947569 -82.66902 " stroke="#253237" stroke-width="2" stroke-opacity="1" stroke-miterlimit="4"/><path stroke-linecap="butt" transform="matrix(0.318869, 0, 0, 0.318869, 95.845143, 95.636003)" fill-opacity="1" fill="#ffffff" fill-rule="nonzero" stroke-linejoin="miter" d="M -23.818982 -36.34444 C -23.818982 -36.34444 -21.552673 -3.501344 -21.552673 -3.501344 C -21.552673 -3.501344 11.106668 36.348932 11.106668 36.348932 C 11.106668 36.348932 23.822495 12.58332 23.822495 12.58332 C 23.822495 12.58332 23.822495 -19.108246 23.822495 -19.108246 C 23.822495 -19.108246 -23.818982 -36.34444 -23.818982 -36.34444 Z M -23.818982 -36.34444 " stroke="#253237" stroke-width="2" stroke-opacity="1" stroke-miterlimit="10"/><path stroke-linecap="round" transform="matrix(0.318869, 0, 0, 0.318869, 90.900445, 100.515661)" fill-opacity="1" fill="#d4d4d4" fill-rule="nonzero" stroke-linejoin="round" d="M 26.61364 21.04593 C 26.61364 21.04593 9.720455 11.686689 9.720455 11.686689 C 9.720455 11.686689 0.275462 25.125285 0.275462 25.125285 C 0.275462 25.125285 -26.613981 -10.878392 -26.613981 -10.878392 C -26.613981 -10.878392 -13.322388 -25.125509 -13.322388 -25.125509 C -13.322388 -25.125509 -6.474462 -25.125509 -6.474462 -25.125509 C -6.474462 -25.125509 -6.045701 -18.804346 -6.045701 -18.804346 C -6.045701 -18.804346 26.61364 21.04593 26.61364 21.04593 Z M 26.61364 21.04593 " stroke="#253237" stroke-width="2" stroke-opacity="1" stroke-miterlimit="4"/><path stroke-linecap="round" transform="matrix(0.318869, 0, 0, 0.318869, 103.659043, 102.506038)" fill-opacity="1" fill="#d4d4d4" fill-rule="nonzero" stroke-linejoin="round" d="M -13.398355 14.803946 C -13.398355 14.803946 -1.662553 7.368004 -1.662553 7.368004 C -1.662553 7.368004 11.322782 20.488092 11.322782 20.488092 C 11.322782 20.488092 13.405335 -9.757937 13.405335 -9.757937 C 13.405335 -9.757937 -0.682527 -20.489213 -0.682527 -20.489213 C -0.682527 -20.489213 -0.682527 -8.961666 -0.682527 -8.961666 C -0.682527 -8.961666 -13.398355 14.803946 -13.398355 14.803946 Z M -13.398355 14.803946 " stroke="#253237" stroke-width="2" stroke-opacity="1" stroke-miterlimit="4"/><path stroke-linecap="round" transform="matrix(0.318869, 0, 0, 0.318869, 98.678612, 108.642994)" fill-opacity="1" fill="#02c37e" fill-rule="nonzero" stroke-linejoin="round" d="M 11.077659 -10.064937 C 12.069935 -1.171208 11.10216 6.325985 8.100833 12.36539 C 8.100833 12.36539 -6.072782 12.36539 -6.072782 12.36539 C -10.152137 6.080978 -11.646676 -2.628996 -12.075437 -12.367997 C -12.075437 -12.367997 2.208431 -4.442043 2.208431 -4.442043 C 2.208431 -4.442043 11.077659 -10.064937 11.077659 -10.064937 Z M 11.077659 -10.064937 " stroke="#253237" stroke-width="2" stroke-opacity="1" stroke-miterlimit="4"/><path stroke-linecap="round" transform="matrix(0.318869, 0, 0, 0.318869, 99.461446, 138.494902)" fill-opacity="1" fill="#02c37e" fill-rule="nonzero" stroke-linejoin="round" d="M 5.645801 -81.252605 C 5.645801 -81.252605 16.328076 -14.512887 16.328076 -14.512887 C 13.37575 15.475885 7.654853 48.024974 1.198936 81.260079 C -6.151253 50.9773 -12.864426 19.346985 -16.319015 -19.070004 C -16.319015 -19.070004 -8.527814 -81.252605 -8.527814 -81.252605 C -8.527814 -81.252605 5.645801 -81.252605 5.645801 -81.252605 Z M 5.645801 -81.252605 " stroke="#253237" stroke-width="2" stroke-opacity="1" stroke-miterlimit="4"/><path stroke-linecap="round" transform="matrix(0.318869, 0, 0, 0.318869, 96.884338, 171.643611)" fill-opacity="1" fill="#253237" fill-rule="nonzero" stroke-linejoin="round" d="M 55.293139 -14.685243 C 55.293139 -14.685243 55.293139 4.44975 55.293139 4.44975 C 21.690524 14.678763 -15.574935 13.416981 -55.290458 4.44975 C -55.290458 4.44975 -54.175679 -13.080451 -54.175679 -13.080451 C -11.679335 -6.600034 25.451371 -6.379529 55.293139 -14.685243 Z M 55.293139 -14.685243 " stroke="#253237" stroke-width="2" stroke-opacity="1" stroke-miterlimit="4"/><path stroke-linecap="round" transform="matrix(0.318869, 0, 0, 0.318869, 96.628928, 184.275926)" fill-opacity="1" fill="#253237" fill-rule="nonzero" stroke-linejoin="round" d="M 56.094127 -35.16621 C 56.094127 -35.16621 61.704771 35.175101 61.704771 35.175101 C 61.704771 35.175101 -61.704906 35.175101 -61.704906 35.175101 C -61.704906 35.175101 -54.501721 -35.16621 -54.501721 -35.16621 C -54.501721 -35.16621 56.094127 -35.16621 56.094127 -35.16621 Z M 56.094127 -35.16621 " stroke="#253237" stroke-width="2" stroke-opacity="1" stroke-miterlimit="4"/><path stroke-linecap="round" transform="matrix(0.318869, 0, 0, 0.318869, 123.077545, 196.066775)" fill-opacity="1" fill="#253237" fill-rule="nonzero" stroke-linejoin="round" d="M -33.907055 -56.658866 C -33.907055 -56.658866 73.025948 10.36261 73.025948 10.36261 C 73.025948 10.36261 42.216405 56.656552 42.216405 56.656552 C 42.216405 56.656552 -73.022312 -8.29462 -73.022312 -8.29462 C -73.022312 -8.29462 -33.907055 -56.658866 -33.907055 -56.658866 Z M -33.907055 -56.658866 " stroke="#253237" stroke-width="2" stroke-opacity="1" stroke-miterlimit="4"/><path stroke-linecap="round" transform="matrix(0.318869, 0, 0, 0.318869, 143.476898, 231.108926)" fill-opacity="1" fill="#253237" fill-rule="nonzero" stroke-linejoin="round" d="M 23.250046 -79.331633 C 23.250046 -79.331633 33.822068 71.616753 33.822068 71.616753 C 21.657505 78.072669 5.217581 79.334452 -15.926463 74.863087 C -15.926463 74.863087 -33.824174 -76.318056 -33.824174 -76.318056 C -33.824174 -76.318056 23.250046 -79.331633 23.250046 -79.331633 Z M 23.250046 -79.331633 " stroke="#253237" stroke-width="2" stroke-opacity="1" stroke-miterlimit="4"/><path stroke-linecap="round" transform="matrix(0.318869, 0, 0, 0.318869, 85.886219, 213.307707)" fill-opacity="1" fill="#253237" fill-rule="nonzero" stroke-linejoin="round" d="M 38.247052 -60.354522 C 38.247052 -60.354522 15.522717 63.361413 15.522717 63.361413 C 15.522717 63.361413 -38.256167 58.400035 -38.256167 58.400035 C -38.256167 58.400035 -27.243134 -63.35585 -27.243134 -63.35585 C -27.243134 -63.35585 38.247052 -60.354522 38.247052 -60.354522 Z M 38.247052 -60.354522 " stroke="#253237" stroke-width="2" stroke-opacity="1" stroke-miterlimit="4"/><path stroke-linecap="round" transform="matrix(0.318869, 0, 0, 0.318869, 80.161238, 254.505305)" fill-opacity="1" fill="#253237" fill-rule="nonzero" stroke-linejoin="round" d="M 33.905482 -68.152891 C 33.905482 -68.152891 7.224295 72.921741 7.224295 72.921741 C -6.312304 74.306027 -20.044907 72.676735 -33.900014 68.768885 C -33.900014 68.768885 -19.983656 -74.302549 -19.983656 -74.302549 C -19.983656 -74.302549 33.905482 -68.152891 33.905482 -68.152891 Z M 33.905482 -68.152891 " stroke="#253237" stroke-width="2" stroke-opacity="1" stroke-miterlimit="4"/><path stroke-linecap="round" transform="matrix(0.318869, 0, 0, 0.318869, 153.272558, 256.09393)" fill-opacity="1" fill="#253237" fill-rule="nonzero" stroke-linejoin="round" d="M -10.385508 -24.280688 C -2.998568 -11.393357 10.844288 -3.945165 27.627221 1.040714 C 41.617081 6.247098 42.254097 12.298753 40.122542 18.509663 C 20.98755 24.120308 -3.415079 24.279562 -35.094394 16.892622 C -35.094394 16.892622 -42.248579 -18.167781 -42.248579 -18.167781 C -42.248579 -18.167781 -10.385508 -24.280688 -10.385508 -24.280688 Z M -10.385508 -24.280688 " stroke="#253237" stroke-width="2" stroke-opacity="1" stroke-miterlimit="4"/><path stroke-linecap="round" transform="matrix(0.318869, 0, 0, 0.318869, 63.850114, 137.797213)" fill-opacity="1" fill="#d4d4d4" fill-rule="nonzero" stroke-linejoin="round" d="M 36.80449 -14.566684 C 36.80449 -14.566684 8.653266 73.133324 8.653266 73.133324 C -0.10571 98.662982 -41.573028 84.428115 -32.814052 58.898458 C -19.203952 -0.0378095 -3.511298 -51.881144 13.651394 -98.665099 C 33.460154 -81.2329 41.569863 -53.547187 36.80449 -14.566684 Z M 36.80449 -14.566684 " stroke="#253237" stroke-width="2" stroke-opacity="1" stroke-miterlimit="4"/><path stroke-linecap="round" transform="matrix(0.318869, 0, 0, 0.318869, 81.313314, 283.086836)" fill-opacity="1" fill="#253237" fill-rule="nonzero" stroke-linejoin="round" d="M -4.829178 -25.495724 C -0.847826 -11.910124 10.165208 -2.097621 24.363323 6.012088 C 35.976622 13.754287 35.266104 19.548686 32.032021 24.938825 C 13.460543 26.28636 -8.749279 21.435235 -35.96948 8.03339 C -35.96948 8.03339 -35.075207 -26.291994 -35.075207 -26.291994 C -35.075207 -26.291994 -4.829178 -25.495724 -4.829178 -25.495724 Z M -4.829178 -25.495724 " stroke="#253237" stroke-width="2" stroke-opacity="1" stroke-miterlimit="4"/><path stroke-linecap="round" transform="matrix(0.318869, 0, 0, 0.318869, 142.16251, 206.202673)" fill-opacity="1" fill="#253237" fill-rule="nonzero" stroke-linejoin="round" d="M 13.173959 -21.424384 C 20.511898 -17.357279 25.706032 -11.023866 27.372075 -1.223614 C 27.372075 -1.223614 -27.374585 21.42722 -27.374585 21.42722 C -27.374585 21.42722 13.173959 -21.424384 13.173959 -21.424384 Z M 13.173959 -21.424384 " stroke="#253237" stroke-width="2" stroke-opacity="1" stroke-miterlimit="4"/><path stroke-linecap="round" transform="matrix(0.318869, 0, 0, 0.318869, 95.845143, 90.139967)" fill-opacity="1" fill="#253237" fill-rule="nonzero" stroke-linejoin="round" d="M 24.092002 -6.600856 C 24.092002 -6.600856 24.092002 4.620433 24.092002 4.620433 C -0.298376 5.098195 -13.712472 3.187146 -22.838957 -13.595786 C -5.308755 -10.937468 7.982837 -6.343599 24.092002 -6.600856 Z M 24.092002 -6.600856 " stroke="#253237" stroke-width="2" stroke-opacity="1" stroke-miterlimit="4"/><path stroke-linecap="butt" transform="matrix(0.318869, 0, 0, 0.318869, 87.899881, 199.202843)" fill-opacity="1" fill="#ffffff" fill-rule="nonzero" stroke-linejoin="miter" d="M -2.185083 -30.588153 C 6.524891 -24.965258 14.303841 -17.455815 21.64178 -9.052098 C 22.634056 -7.912819 23.381325 -6.540784 23.638581 -5.046245 C 24.055092 -2.620683 23.124068 -0.893388 21.078265 0.258141 C 18.076938 1.960935 14.291591 1.287168 11.768026 -1.064893 C 11.768026 -1.064893 2.862046 -9.419608 2.862046 -9.419608 C 3.854322 -4.788989 5.520365 -0.501378 7.66417 3.541226 C 10.432741 8.74761 15.210364 12.606459 20.784258 14.517508 C 20.84551 14.529759 20.894511 14.554259 20.955762 14.57876 C 26.186647 16.355056 26.848164 23.49699 22.03379 26.204309 C 21.470276 26.522818 20.88226 26.816825 20.269745 27.086332 C 12.490794 30.589922 3.364309 29.181136 -3.410115 23.987002 C -8.996259 19.699392 -13.908635 13.904993 -17.779735 5.807534 C -17.779735 5.807534 -26.844968 -19.036106 -26.844968 -19.036106 C -26.844968 -19.036106 -2.185083 -30.588153 -2.185083 -30.588153 Z M -2.185083 -30.588153 " stroke="#253237" stroke-width="2" stroke-opacity="1" stroke-miterlimit="10"/><path fill="#d4d4d4" d="M 54.445312 163.695312 C 49.109375 157.210938 59.902344 148.328125 65.238281 154.8125 C 65.238281 154.8125 88.964844 189.753906 88.964844 189.753906 C 88.964844 189.753906 79.269531 195.125 79.269531 195.125 C 79.269531 195.125 54.445312 163.695312 54.445312 163.695312 Z M 54.445312 163.695312 " fill-opacity="1" fill-rule="nonzero"/><path stroke-linecap="butt" transform="matrix(0.318869, 0, 0, 0.318869, 71.706422, 179.410315)" fill="none" stroke-linejoin="miter" d="M 54.123804 32.438336 C 54.123804 32.438336 23.718521 49.28252 23.718521 49.28252 C 23.718521 49.28252 -54.132234 -49.283518 -54.132234 -49.283518 " stroke="#253237" stroke-width="2" stroke-opacity="1" stroke-miterlimit="10"/><path stroke-linecap="round" transform="matrix(0.318869, 0, 0, 0.318869, 78.254728, 173.980273)" fill="none" stroke-linejoin="round" d="M -33.592942 -49.466158 C -33.592942 -49.466158 33.587787 49.467389 33.587787 49.467389 " stroke="#253237" stroke-width="2" stroke-opacity="1" stroke-miterlimit="4"/><path stroke-linecap="round" transform="matrix(0.318869, 0, 0, 0.318869, 53.473475, 160.419717)" fill="none" stroke-linejoin="round" d="M -0.798837 -10.271246 C -3.052895 -1.990033 -1.154096 4.612887 3.047762 10.272533 " stroke="#253237" stroke-width="2" stroke-opacity="1" stroke-miterlimit="4"/><path stroke-linecap="round" transform="matrix(0.299639, 0.10906, -0.10906, 0.299639, 185.050363, 133.590709)" fill-opacity="1" fill="#ffffff" fill-rule="nonzero" stroke-linejoin="round" d="M -26.281114 18.192828 C -26.281114 18.192828 -15.597355 10.797435 -15.597355 10.797435 C -14.220288 9.852983 -13.18662 8.538129 -12.60097 6.995246 C -12.60097 6.995246 -9.417564 -1.45083 -9.417564 -1.45083 C -8.072661 -4.990879 -5.997114 -8.171107 -3.290296 -10.798909 C -3.290296 -10.798909 21.022908 -34.509816 21.022908 -34.509816 C 23.224827 -35.050519 24.556397 -34.114191 25.122239 -31.843203 C 25.551847 -30.16142 25.16092 -28.441716 24.161787 -27.139432 C 24.161787 -27.139432 11.249443 -10.250584 11.249443 -10.250584 C 18.111583 -8.446149 22.526507 -3.873743 25.057095 2.792449 C 26.28049 6.01043 25.886939 9.477982 23.946229 12.0616 C 21.242839 15.665893 17.205253 20.081706 12.797225 24.697531 C 10.966214 26.61547 8.700727 28.091865 6.137846 29.037714 C 6.137846 29.037714 -10.133152 35.051129 -10.133152 35.051129 C -10.133152 35.051129 -26.281114 18.192828 -26.281114 18.192828 Z M -26.281114 18.192828 " stroke="#253237" stroke-width="2" stroke-opacity="1" stroke-miterlimit="4"/><path fill="#d4d4d4" d="M 140.46875 149.808594 C 132.628906 152.820312 137.644531 165.871094 145.484375 162.855469 C 145.484375 162.855469 183.347656 144.140625 183.347656 144.140625 C 183.347656 144.140625 177.554688 134.691406 177.554688 134.691406 C 177.554688 134.691406 140.46875 149.808594 140.46875 149.808594 Z M 140.46875 149.808594 " fill-opacity="1" fill-rule="nonzero"/><path stroke-linecap="butt" transform="matrix(0.299639, 0.10906, -0.10906, 0.299639, 163.088579, 143.733653)" fill="none" stroke-linejoin="miter" d="M 60.139045 -20.530616 C 60.139045 -20.530616 32.932187 -42.163454 32.932187 -42.163454 C 32.932187 -42.163454 -60.143547 42.164648 -60.143547 42.164648 " stroke="#253237" stroke-width="2" stroke-opacity="1" stroke-miterlimit="10"/><path stroke-linecap="round" transform="matrix(0.299639, 0.10906, -0.10906, 0.299639, 166.254807, 152.58995)" fill="none" stroke-linejoin="round" d="M -41.30306 43.230707 C -41.30306 43.230707 41.309034 -43.233591 41.309034 -43.233591 " stroke="#253237" stroke-width="2" stroke-opacity="1" stroke-miterlimit="4"/><path stroke-linecap="round" transform="matrix(0.299639, 0.10906, -0.10906, 0.299639, 144.01829, 161.781493)" fill="none" stroke-linejoin="round" d="M -14.361682 6.125932 C -5.571741 7.711055 1.910372 7.243106 14.356498 -7.703088 " stroke="#253237" stroke-width="2" stroke-opacity="1" stroke-miterlimit="4"/><path stroke-linecap="round" transform="matrix(0.311901, -0.0662967, 0.0662967, 0.311901, 108.545981, 59.785282)" fill-opacity="1" fill="#253237" fill-rule="nonzero" stroke-linejoin="round" d="M 4.351515 -19.339285 C 8.410134 -6.616376 5.806483 6.280971 -2.128154 19.335153 C -2.128154 19.335153 -8.418464 -17.357129 -8.418464 -17.357129 C -8.418464 -17.357129 4.351515 -19.339285 4.351515 -19.339285 Z M 4.351515 -19.339285 " stroke="#253237" stroke-width="2" stroke-opacity="1" stroke-miterlimit="4"/><path stroke-linecap="butt" transform="matrix(0.311901, -0.0662967, 0.0662967, 0.311901, 97.022033, 69.420963)" fill-opacity="1" fill="#ffffff" fill-rule="nonzero" stroke-linejoin="miter" d="M -39.547605 -8.478321 C -39.547605 -8.478321 -39.179529 15.420553 -39.179529 15.420553 C -39.179529 15.420553 -37.136823 44.108875 -37.136823 44.108875 C -18.176932 57.431728 1.883482 64.162927 23.937422 58.981728 C 28.657639 57.868486 32.448124 54.3534 33.93094 49.734129 C 40.485409 29.38567 41.21908 1.187293 36.323966 -34.644851 C 19.392434 -64.168427 -18.060211 -62.37304 -41.224642 -38.003169 C -41.224642 -38.003169 -39.547605 -8.478321 -39.547605 -8.478321 Z M -39.547605 -8.478321 " stroke="#253237" stroke-width="2" stroke-opacity="1" stroke-miterlimit="10"/><path stroke-linecap="butt" transform="matrix(0.311901, -0.0662967, 0.0662967, 0.311901, 82.028181, 72.637994)" fill-opacity="1" fill="#ffffff" fill-rule="nonzero" stroke-linejoin="miter" d="M 8.556361 -8.567771 C 3.91316 -16.242527 -8.980107 -11.205674 -5.055553 1.676598 C -0.87011 12.447673 3.976314 15.218647 8.980706 16.244791 C 8.980706 16.244791 8.556361 -8.567771 8.556361 -8.567771 Z M 8.556361 -8.567771 " stroke="#253237" stroke-width="2" stroke-opacity="1" stroke-miterlimit="10"/><path stroke-linecap="round" transform="matrix(0.311901, -0.0662967, 0.0662967, 0.311901, 82.836957, 63.987982)" fill-opacity="1" fill="#253237" fill-rule="nonzero" stroke-linejoin="round" d="M 11.344357 -22.335137 C 20.711393 -7.895262 13.14619 20.566815 0.855825 28.011185 C 0.855825 28.011185 0.42337 17.436681 0.42337 17.436681 C -2.682684 14.196526 -6.039847 12.255588 -10.341823 15.348853 C -19.495095 -2.276776 -20.704408 -16.973989 -11.972428 -28.005139 C -11.972428 -28.005139 11.344357 -22.335137 11.344357 -22.335137 Z M 11.344357 -22.335137 " stroke="#253237" stroke-width="2" stroke-opacity="1" stroke-miterlimit="4"/><path stroke-linecap="round" transform="matrix(0.311901, -0.0662967, 0.0662967, 0.311901, 94.107186, 50.999274)" fill-opacity="1" fill="#253237" fill-rule="nonzero" stroke-linejoin="round" d="M 40.937758 -23.520323 C 55.019193 -2.329858 47.728908 13.879568 33.873653 28.568327 C 22.16029 16.034332 1.424817 14.482343 -27.508748 22.922778 C -27.508748 22.922778 -55.010867 4.477884 -55.010867 4.477884 C -52.577621 -20.403574 -25.093835 -28.563541 -3.926369 -16.19919 C 18.926176 -6.69533 34.187668 -8.673906 40.937758 -23.520323 Z M 40.937758 -23.520323 " stroke="#253237" stroke-width="2" stroke-opacity="1" stroke-miterlimit="4"/><path stroke-linecap="round" transform="matrix(0.311901, -0.0662967, 0.0662967, 0.311901, 104.224766, 70.24723)" fill="none" stroke-linejoin="round" d="M -1.793928 -18.106405 C -1.149828 -4.756684 1.729165 6.56328 6.840505 15.865469 C 1.917744 17.637003 -2.614459 18.101389 -6.841195 17.541116 " stroke="#253237" stroke-width="2" stroke-opacity="1" stroke-miterlimit="4"/><path stroke-linecap="round" transform="matrix(0.311901, -0.0662967, 0.0662967, 0.311901, 94.201851, 64.575999)" fill="none" stroke-linejoin="round" d="M 6.597057 -2.323086 C 0.759556 -3.20069 -3.640312 -1.355583 -6.599999 3.200249 " stroke="#253237" stroke-width="2" stroke-opacity="1" stroke-miterlimit="4"/><path stroke-linecap="round" transform="matrix(0.311901, -0.0662967, 0.0662967, 0.311901, 105.682776, 63.513622)" fill="none" stroke-linejoin="round" d="M 5.222442 1.780257 C 2.566289 -0.512637 -0.647717 -1.771899 -5.218006 -0.53912 " stroke="#253237" stroke-width="2" stroke-opacity="1" stroke-miterlimit="4"/><path stroke-linecap="round" transform="matrix(0.311901, -0.0662967, 0.0662967, 0.311901, 96.593691, 69.815182)" fill-opacity="1" fill="#253237" fill-rule="nonzero" stroke-linejoin="round" d="M -2.679511 -0.0020422 C -2.678922 2.941222 -1.482273 5.324656 -0.00464972 5.325635 C 1.472974 5.326614 2.681414 2.940913 2.680824 -0.00235139 C 2.677687 -2.933633 1.481039 -5.317067 0.00341522 -5.318046 C -1.486191 -5.321572 -2.682648 -2.933324 -2.679511 -0.0020422 Z M -2.679511 -0.0020422 " stroke="#253237" stroke-width="2" stroke-opacity="1" stroke-miterlimit="4"/><path stroke-linecap="round" transform="matrix(0.311901, -0.0662967, 0.0662967, 0.311901, 106.362113, 66.709676)" fill-opacity="1" fill="#253237" fill-rule="nonzero" stroke-linejoin="round" d="M -2.125974 0.00301981 C -2.118614 2.384143 -1.16654 4.327348 -0.00121652 4.324565 C 1.176089 4.324329 2.126876 2.384822 2.119515 0.0036988 C 2.114702 -2.389407 1.17461 -4.330065 -0.0026956 -4.329829 C -1.168019 -4.327046 -2.118805 -2.387539 -2.125974 0.00301981 Z M -2.125974 0.00301981 " stroke="#253237" stroke-width="2" stroke-opacity="1" stroke-miterlimit="4"/><path stroke-linecap="round" transform="matrix(0.311901, -0.0662967, 0.0662967, 0.311901, 99.939418, 80.830322)" fill="none" stroke-linejoin="round" d="M 9.718845 4.801515 C 2.282734 3.195873 -4.415322 0.356946 -9.718311 -4.802965 " stroke="#253237" stroke-width="2" stroke-opacity="1" stroke-miterlimit="4"/></svg>