<svg width="612" height="653" viewBox="0 0 612 653" fill="none" xmlns="http://www.w3.org/2000/svg">
<circle cx="306" cy="347" r="306" fill="#0D2444"/>
<g clip-path="url(#clip0_536_855)">
<path d="M442.096 59.8799C432.933 64.2227 425.458 72.1846 416.053 76.045C421.841 73.8736 427.628 71.2197 433.174 68.8069C429.557 72.426 426.181 75.8037 422.564 79.4227C427.869 76.7688 433.174 73.8736 438.238 70.9783C434.139 75.3212 430.039 79.9054 425.94 84.2483C429.798 82.0768 433.415 79.1816 436.55 75.8039C437.997 74.3563 439.444 72.4262 441.373 71.9435C438.238 78.2164 434.38 84.2483 430.521 90.0387C435.103 86.4197 439.926 82.5593 444.508 78.9403C440.891 84.9721 437.273 90.7625 433.656 96.7941C438.72 92.4513 443.302 87.3846 447.401 82.0766C444.025 89.3147 440.891 96.5528 438.479 104.032C442.82 97.0355 447.642 90.5212 453.189 84.4894C451.742 86.1783 451.018 88.5909 450.536 91.0037C448.366 98.9656 445.714 106.686 442.337 113.924C449.572 106.204 456.082 98.0004 461.87 89.0734C459.941 95.1052 457.77 100.896 455.841 106.927C460.905 98.9653 465.969 90.7621 470.068 82.0764L446.678 58.6736C444.99 58.6736 443.543 59.3974 442.096 59.8799Z" fill="#F16D6E"/>
<path d="M470.31 29.4799L451.26 25.6195L425.94 50.7117L446.437 54.0894L470.31 29.4799Z" fill="#FEC656"/>
<path d="M497.559 56.7433L501.417 75.8037L476.339 100.896L472.962 80.629L497.559 56.7433Z" fill="#FEC656"/>
<path d="M526.495 0.527494C509.374 -2.1264 492.012 7.28312 477.785 19.1052L507.928 49.2641C519.744 35.029 529.148 17.6576 526.495 0.527494Z" fill="#F16D6E"/>
<path d="M477.785 19.1052C459.217 34.7877 445.955 54.3305 445.955 54.3305L459.217 67.6004L472.48 80.8703C472.48 80.8703 492.012 67.6004 507.686 49.0227L477.785 19.1052Z" fill="#53C2EF"/>
<path d="M449.307 74.007L452.035 76.7367L478.805 49.9525L476.077 47.2228L449.307 74.007Z" fill="#FEC656"/>
<path d="M475.934 47.3598L478.663 50.0895L484.801 43.9478L482.073 41.2181L475.934 47.3598Z" fill="#F3B74B"/>
</g>
<defs>
<clipPath id="clip0_536_855">
<rect width="111" height="114" fill="white" transform="translate(416)"/>
</clipPath>
</defs>
</svg>
